<svg xmlns="http://www.w3.org/2000/svg" xmlns:xlink="http://www.w3.org/1999/xlink" width="500" zoomAndPan="magnify" viewBox="0 0 375 225" height="300" preserveAspectRatio="xMidYMid meet" version="1.0"><defs><g/><clipPath id="8797ff1aa9"><path d="M 147 25 L 290.820312 25 L 290.820312 102 L 147 102 Z M 147 25 " clip-rule="nonzero"/></clipPath></defs><g fill="#fff" fill-opacity="1"><g transform="translate(-3.081648, 182.076945)"><g><path d="M 5.113281 0 L 11.96875 0 L 11.96875 -29.703125 L 21.804688 -3.457031 L 28.71875 -3.457031 L 38.550781 -29.703125 L 38.550781 0 L 45.410156 0 L 45.410156 -39.703125 L 35.800781 -39.703125 L 25.261719 -11.464844 L 14.722656 -39.703125 L 5.113281 -39.703125 Z M 5.113281 0 "/></g></g></g><g fill="#fff" fill-opacity="1"><g transform="translate(47.434442, 182.076945)"><g><path d="M 0.335938 0 L 8.121094 0 L 11.210938 -8.625 L 26.636719 -8.625 L 29.703125 0 L 37.402344 0 L 21.582031 -39.703125 L 16.242188 -39.703125 Z M 13.628906 -14.722656 L 18.9375 -29.222656 L 24.222656 -14.722656 Z M 13.628906 -14.722656 "/></g></g></g><g fill="#fff" fill-opacity="1"><g transform="translate(85.166984, 182.076945)"><g><path d="M 5.113281 0.0546875 L 12.25 0.0546875 L 12.25 -16.972656 L 17.027344 -16.972656 L 26.808594 0.0546875 L 34.984375 0.0546875 L 23.941406 -17.675781 C 28.4375 -19.21875 31.695312 -23.011719 31.695312 -28.015625 C 31.695312 -35.460938 25.375 -39.703125 17.957031 -39.703125 L 5.113281 -39.703125 Z M 12.308594 -22.789062 L 12.308594 -33.324219 L 18.011719 -33.324219 C 22.085938 -33.324219 24.644531 -31.191406 24.644531 -27.902344 C 24.644531 -24.925781 22.394531 -22.957031 18.601562 -22.789062 Z M 12.308594 -22.789062 "/></g></g></g><g fill="#fff" fill-opacity="1"><g transform="translate(120.792348, 182.076945)"><g><path d="M 5.113281 0 L 12.25 0 L 12.25 -39.703125 L 5.113281 -39.703125 Z M 5.113281 0 "/></g></g></g><g fill="#fff" fill-opacity="1"><g transform="translate(138.155498, 182.076945)"><g><path d="M 5.113281 0 L 11.96875 0 L 11.96875 -27.847656 L 28.605469 0 L 35.742188 0 L 35.742188 -39.703125 L 28.886719 -39.703125 L 28.886719 -11.914062 L 12.195312 -39.703125 L 5.113281 -39.703125 Z M 5.113281 0 "/></g></g></g><g fill="#fff" fill-opacity="1"><g transform="translate(179.006664, 182.076945)"><g><path d="M 5.113281 0 L 31.527344 0 L 31.527344 -6.742188 L 12.25 -6.742188 L 12.25 -16.578125 L 30.207031 -16.578125 L 30.207031 -23.125 L 12.25 -23.125 L 12.25 -33.15625 L 31.527344 -33.15625 L 31.527344 -39.703125 L 5.113281 -39.703125 Z M 5.113281 0 "/></g></g></g><g fill="#fff" fill-opacity="1"><g transform="translate(213.985826, 182.076945)"><g/></g></g><g fill="#fff" fill-opacity="1"><g transform="translate(227.808916, 182.076945)"><g><path d="M 13.011719 0 L 20.148438 0 L 20.148438 -33.324219 L 32.566406 -33.324219 L 32.566406 -39.703125 L 0.5625 -39.703125 L 0.5625 -33.324219 L 13.011719 -33.324219 Z M 13.011719 0 "/></g></g></g><g fill="#fff" fill-opacity="1"><g transform="translate(260.961856, 182.076945)"><g><path d="M 5.113281 0 L 31.527344 0 L 31.527344 -6.742188 L 12.25 -6.742188 L 12.25 -16.578125 L 30.207031 -16.578125 L 30.207031 -23.125 L 12.25 -23.125 L 12.25 -33.15625 L 31.527344 -33.15625 L 31.527344 -39.703125 L 5.113281 -39.703125 Z M 5.113281 0 "/></g></g></g><g fill="#fff" fill-opacity="1"><g transform="translate(295.941032, 182.076945)"><g><path d="M 21.523438 0.5625 C 29.421875 0.5625 35.742188 -3.457031 38.890625 -10.875 L 32.285156 -13.570312 C 30.152344 -8.234375 26.636719 -6.210938 21.523438 -6.210938 C 13.011719 -6.210938 9.386719 -12.25 9.386719 -20.148438 C 9.386719 -27.507812 13.011719 -33.550781 21.410156 -33.550781 C 26.582031 -33.550781 30.683594 -31.527344 32.175781 -26.300781 L 38.832031 -28.941406 C 35.628906 -36.359375 29.335938 -40.351562 21.46875 -40.351562 C 8.402344 -40.351562 2.304688 -30.742188 2.304688 -19.867188 C 2.304688 -8.964844 8.457031 0.5625 21.523438 0.5625 Z M 21.523438 0.5625 "/></g></g></g><g fill="#fff" fill-opacity="1"><g transform="translate(336.174092, 182.076945)"><g><path d="M 5.113281 0 L 12.25 0 L 12.25 -16.578125 L 29.644531 -16.578125 L 29.644531 0 L 36.78125 0 L 36.78125 -39.703125 L 29.644531 -39.703125 L 29.644531 -23.125 L 12.25 -23.125 L 12.25 -39.703125 L 5.113281 -39.703125 Z M 5.113281 0 "/></g></g></g><g fill="#fff" fill-opacity="1"><g transform="translate(82.293192, 211.6973)"><g><path d="M 5.320312 -6.476562 C 7.101562 -6.050781 8.316406 -5.585938 8.964844 -5.058594 C 9.410156 -4.695312 9.632812 -4.230469 9.632812 -3.664062 C 9.632812 -3.09375 9.507812 -2.628906 9.265625 -2.304688 C 8.660156 -1.457031 7.566406 -1.03125 6.03125 -1.03125 C 3.886719 -1.03125 2.671875 -1.761719 2.40625 -3.21875 L 0.75 -3.21875 C 1.234375 -0.890625 2.996094 0.261719 6.03125 0.261719 C 7.386719 0.261719 8.519531 -0.0195312 9.429688 -0.628906 C 10.519531 -1.335938 11.085938 -2.386719 11.085938 -3.761719 C 11.085938 -4.894531 10.644531 -5.765625 9.753906 -6.375 C 9.125 -6.820312 8.113281 -7.222656 6.71875 -7.585938 C 5.300781 -7.953125 4.390625 -8.253906 3.964844 -8.476562 C 3.035156 -8.941406 2.570312 -9.589844 2.589844 -10.441406 C 2.589844 -10.886719 2.671875 -11.269531 2.875 -11.554688 C 3.398438 -12.34375 4.328125 -12.746094 5.664062 -12.746094 C 7.546875 -12.746094 8.621094 -12.140625 8.902344 -10.964844 L 10.441406 -10.964844 C 9.933594 -12.949219 8.335938 -13.960938 5.664062 -13.960938 C 4.453125 -13.960938 3.378906 -13.636719 2.488281 -12.988281 C 1.578125 -12.34375 1.113281 -11.390625 1.113281 -10.097656 C 1.113281 -8.335938 2.527344 -7.121094 5.320312 -6.476562 Z M 5.320312 -6.476562 "/></g></g></g><g fill="#fff" fill-opacity="1"><g transform="translate(110.091208, 211.6973)"><g><path d="M 13.636719 -6.917969 C 13.636719 -5.339844 13.070312 -4.007812 11.976562 -2.914062 C 10.867188 -1.800781 9.53125 -1.253906 7.972656 -1.253906 C 6.414062 -1.253906 5.078125 -1.800781 3.984375 -2.914062 C 2.875 -4.007812 2.328125 -5.339844 2.328125 -6.917969 C 2.328125 -8.457031 2.875 -9.792969 3.984375 -10.90625 C 5.078125 -12 6.414062 -12.566406 7.972656 -12.566406 C 9.53125 -12.566406 10.867188 -12 11.976562 -10.90625 C 13.070312 -9.792969 13.636719 -8.457031 13.636719 -6.917969 Z M 15.054688 -6.917969 C 15.054688 -7.890625 14.851562 -8.800781 14.488281 -9.671875 C 14.121094 -10.519531 13.617188 -11.269531 12.96875 -11.917969 C 12.320312 -12.542969 11.574219 -13.050781 10.722656 -13.414062 C 9.855469 -13.777344 8.941406 -13.980469 7.972656 -13.980469 C 7 -13.980469 6.070312 -13.777344 5.21875 -13.414062 C 4.371094 -13.050781 3.621094 -12.542969 2.972656 -11.917969 C 2.328125 -11.269531 1.820312 -10.519531 1.457031 -9.671875 C 1.09375 -8.800781 0.910156 -7.890625 0.910156 -6.917969 C 0.910156 -5.949219 1.09375 -5.019531 1.457031 -4.167969 C 1.820312 -3.296875 2.328125 -2.550781 2.972656 -1.902344 C 3.621094 -1.253906 4.371094 -0.75 5.21875 -0.382812 C 6.070312 -0.0195312 7 0.160156 7.972656 0.160156 C 8.941406 0.160156 9.855469 -0.0195312 10.722656 -0.382812 C 11.574219 -0.75 12.320312 -1.253906 12.96875 -1.902344 C 13.617188 -2.550781 14.121094 -3.296875 14.488281 -4.167969 C 14.851562 -5.019531 15.054688 -5.949219 15.054688 -6.917969 Z M 15.054688 -6.917969 "/></g></g></g><g fill="#fff" fill-opacity="1"><g transform="translate(142.237066, 211.6973)"><g><path d="M 9.691406 -12.445312 L 9.691406 -13.757812 L 1.515625 -13.757812 L 1.515625 0 L 2.933594 0 L 2.933594 -6.210938 L 9.488281 -6.210938 L 9.488281 -7.546875 L 2.933594 -7.546875 L 2.933594 -12.445312 Z M 9.691406 -12.445312 "/></g></g></g><g fill="#fff" fill-opacity="1"><g transform="translate(168.518394, 211.6973)"><g><path d="M 0.40625 -12.484375 L 3.742188 -12.484375 L 3.742188 -0.0390625 L 5.160156 -0.0390625 L 5.160156 -12.484375 L 8.496094 -12.484375 L 8.496094 -13.800781 L 0.40625 -13.800781 Z M 0.40625 -12.484375 "/></g></g></g><g fill="#fff" fill-opacity="1"><g transform="translate(193.606608, 211.6973)"><g><path d="M 12.445312 1.113281 L 15.640625 -13.757812 L 14.203125 -13.757812 L 12.058594 -3.761719 L 7.929688 -14.566406 L 3.785156 -3.761719 L 1.660156 -13.757812 L 0.203125 -13.757812 L 3.417969 1.113281 L 7.929688 -10.867188 Z M 12.445312 1.113281 "/></g></g></g><g fill="#fff" fill-opacity="1"><g transform="translate(225.631132, 211.6973)"><g><path d="M 3.742188 -5.058594 L 6.253906 -11.390625 L 8.742188 -5.058594 Z M 12.28125 0 L 6.253906 -14.710938 L 0.203125 0 L 1.738281 0 L 3.21875 -3.742188 L 9.265625 -3.742188 L 10.742188 0 Z M 12.28125 0 "/></g></g></g><g fill="#fff" fill-opacity="1"><g transform="translate(254.298723, 211.6973)"><g><path d="M 2.933594 -6.796875 L 2.933594 -12.402344 L 6.128906 -12.402344 C 6.960938 -12.402344 7.628906 -12.140625 8.132812 -11.613281 C 8.621094 -11.085938 8.882812 -10.441406 8.882812 -9.632812 C 8.882812 -8.820312 8.621094 -8.152344 8.09375 -7.609375 C 7.566406 -7.0625 6.917969 -6.796875 6.128906 -6.796875 Z M 10.296875 -9.609375 C 10.296875 -10.785156 9.855469 -11.796875 9.003906 -12.585938 C 8.175781 -13.355469 7.140625 -13.757812 5.929688 -13.757812 L 1.515625 -13.757812 L 1.515625 0 L 2.933594 0 L 2.933594 -5.441406 L 4.574219 -5.441406 L 8.621094 0 L 10.519531 0 L 6.273438 -5.441406 C 7.34375 -5.503906 8.253906 -5.886719 9.003906 -6.597656 C 9.855469 -7.386719 10.296875 -8.398438 10.296875 -9.609375 Z M 10.296875 -9.609375 "/></g></g></g><g fill="#fff" fill-opacity="1"><g transform="translate(281.490079, 211.6973)"><g><path d="M 9.691406 0 L 9.691406 -1.316406 L 2.933594 -1.316406 L 2.933594 -6.210938 L 9.488281 -6.210938 L 9.488281 -7.546875 L 2.933594 -7.546875 L 2.933594 -12.445312 L 9.691406 -12.445312 L 9.691406 -13.757812 L 1.515625 -13.757812 L 1.515625 0 Z M 9.691406 0 "/></g></g></g><g clip-path="url(#8797ff1aa9)"><path fill="#fff" d="M 198.621094 56.632812 C 193.378906 33.210938 171.085938 29.390625 166.457031 50.402344 C 166.597656 49.890625 166.488281 50.300781 166.515625 50.203125 C 161.753906 72.664062 188.570312 85.109375 207.566406 84.894531 C 207.519531 84.898438 207.753906 84.886719 207.484375 84.902344 C 234.765625 84.28125 265.050781 71.640625 290.820312 85.101562 C 277.855469 83.652344 262.710938 87.28125 250.246094 91.511719 C 184.03125 117.925781 156.03125 86.699219 149.695312 68.519531 C 141.457031 43.796875 163.792969 16.761719 187.472656 28.933594 C 187.460938 28.925781 187.773438 29.054688 187.671875 29.019531 C 197.597656 34.078125 201.074219 45.847656 198.621094 56.632812 " fill-opacity="1" fill-rule="nonzero"/></g><path fill="#fff" d="M 110.097656 50.753906 C 118.113281 111.753906 168.0625 118.710938 217.023438 109.636719 C 240.351562 104.644531 263.9375 91.257812 288.132812 96.304688 C 275.195312 98.5625 261.492188 106.152344 249.90625 112.609375 C 177.207031 155.925781 89.4375 118.519531 110.097656 50.753906 " fill-opacity="1" fill-rule="nonzero"/><path fill="#fff" d="M 141.285156 12.429688 C 141.285156 12.429688 105.097656 57.46875 156.195312 97.667969 C 156.195312 97.667969 83.816406 63.542969 141.285156 12.429688 " fill-opacity="1" fill-rule="nonzero"/><path fill="#fff" d="M 185.214844 14.167969 C 185.214844 14.167969 146.210938 9.0625 139.554688 47.15625 C 139.554688 47.15625 135.414062 -0.015625 185.214844 14.167969 " fill-opacity="1" fill-rule="nonzero"/></svg>